<svg xmlns="http://www.w3.org/2000/svg" xmlns:xlink="http://www.w3.org/1999/xlink" xmlns:ifc="http://www.ifcopenshell.org/ns" width="250mm" height="250mm" viewBox="0 0 250 250">
    <defs>
        <marker id="arrowend" markerWidth="10" markerHeight="7" refX="10" refY="3.5" orient="auto">
          <polygon points="0 0, 10 3.5, 0 7"/>
        </marker>
        <marker id="arrowstart" markerWidth="10" markerHeight="7" refX="0" refY="3.5" orient="auto">
          <polygon points="10 0, 0 3.5, 10 7"/>
        </marker>
    </defs>
    <g ifc:name="Elevation GROUND FLOOR PLAN" class="section" ifc:plane="[[1.000000,0.000000,0.000000,0.000000],[0.000000,1.000000,0.000000,0.000000],[0.000000,0.000000,1.000000,1.600000],[0.000000,0.000000,0.000000,1.000000]]" ifc:matrix3="[[50.000001,0.000000,12.053328],[0.000000,50.000001,216.639229],[0.000000,0.000000,1.000000]]">
        <g id="product-d4bedc39-981b-4ebb-bf8e-46b383665de4" class="IfcDoor material-null projection" ifc:name="Door" ifc:guid="3Kljmvc1jEkx_EHhE3Pbta">
            <path d="M136.23792338046724,196.20655506478062 L133.4879507285284,196.20655375349145"/>
            <path d="M136.23792469176925,193.45655541123293 L136.23792338046724,196.20655506478062"/>
            <path d="M135.48792390573308,193.45655505360469 L136.23792469176925,193.45655541123293"/>
            <path d="M135.48792497861675,191.20655493067036 L135.48792390573308,193.45655505360469"/>
            <path d="M133.48795267560013,191.20655397700926 L135.48792497861675,191.20655493067036"/>
            <path d="M181.98792751925947,191.20657710359941 L181.98792644637581,193.45657722653374"/>
            <path d="M183.98794352310682,191.20657805728138 L181.98792751925947,191.20657710359941"/>
            <path d="M183.98794113892114,196.20657783376339 L183.98794352310682,191.20657805728138"/>
            <path d="M181.23793179961831,196.20657652245674 L183.98794113892114,196.20657783376339"/>
            <path d="M181.23793311092032,193.45657686890905 L181.23793179961831,196.20657652245674"/>
            <path d="M181.98792644637581,193.45657722653374 L181.23793311092032,193.45657686890905"/>
            <path d="M136.13144585951909,185.2023639580506 L135.73790630372889,191.20657032356118"/>
            <path d="M137.30532473073723,179.30088992419721 L136.13144585951909,185.2023639580506"/>
            <path d="M139.23945759376011,173.60312779540371 L137.30532473073723,179.30088992419721"/>
            <path d="M141.90075059897742,168.20656616927891 L139.23945759376011,173.60312779540371"/>
            <path d="M145.24366910583558,163.20353858070769 L141.90075059897742,168.20656616927891"/>
            <path d="M149.21101459288985,158.67965217474992 L145.24366910583558,163.20353858070769"/>
            <path d="M153.73490478240029,154.71231249212786 L149.21101459288985,158.67965217474992"/>
            <path d="M158.7379325787918,151.36940024664494 L153.73490478240029,154.71231249212786"/>
            <path d="M164.13449972315487,148.70810903523113 L158.7379325787918,151.36940024664494"/>
            <path d="M169.83226369647809,146.7739827236056 L164.13449972315487,148.70810903523113"/>
            <path d="M175.7337381047696,145.60010780409129 L169.83226369647809,146.7739827236056"/>
            <path d="M181.7379437280004,145.20657099412591 L175.7337381047696,145.60010780409129"/>
            <path d="M179.73794560554694,145.2065700404525 L181.7379437280004,145.20657099412591"/>
            <path d="M179.73792665126706,191.20657603071541 L179.73794560554694,145.2065700404525"/>
            <path d="M181.73792775395276,191.20657698439024 L179.73792665126706,191.20657603071541"/>
            <path d="M181.7379437280004,145.20657099412591 L181.73792775395276,191.20657698439024"/>
        </g>
        <g id="product-5b2fab67-40c6-497d-8a81-83de7cbae2a2" class="IfcWindow material-null projection" ifc:name="Window" ifc:guid="1RBwjdGCP9VOg1WzvykkAY">
            <path d="M32.695116267686203,133.84584213381584 L32.695114698104177,138.8458410460411"/>
            <path d="M35.195116342191888,133.84584291860705 L32.695116267686203,133.84584213381584"/>
            <path d="M35.195114772609863,138.84584183083228 L35.195116342191888,133.84584291860705"/>
            <path d="M35.195128898850257,93.84584470674838 L32.695128824344572,93.845843921957183"/>
            <path d="M35.195127329268431,98.845842993114573 L35.195128898850257,93.84584470674838"/>
            <path d="M32.695127254762738,98.845842208323376 L35.195127329268431,98.845842993114573"/>
            <path d="M32.695128824344572,93.845843921957183 L32.695127254762738,98.845842208323376"/>
            <path d="M33.695116260235572,133.84584244773231 L34.195116163378003,133.84584260469052"/>
            <path d="M33.695127247312115,98.845842522239835 L33.695116260235572,133.84584244773231"/>
            <path d="M34.195127150454539,98.845842679198057 L33.695127247312115,98.845842522239835"/>
            <path d="M34.195116163378003,133.84584260469052 L34.195127150454539,98.845842679198057"/>
            <path d="M35.195116342191888,133.84584291860705 L35.195127329268431,98.845842993114573"/>
            <path d="M32.695116267686203,133.84584213381584 L32.695127254762738,98.845842208323376"/>
        </g>
        <g id="product-4bc1b162-231f-45a2-bad7-e02abd4789f6" class="IfcWindow material-null projection" ifc:name="Window" ifc:guid="1BmR5Y8nz5ehhNu2gzHuds">
            <path d="M202.69513079631832,94.211506800194854 L202.69512982278218,89.211505533596224"/>
            <path d="M200.19513072181252,94.211507286962828 L202.69513079631832,94.211506800194854"/>
            <path d="M200.19512974827637,89.211506020364197 L200.19513072181252,94.211507286962828"/>
            <path d="M200.19513753656395,129.21150721245635 L200.19513851009958,134.2115054988227"/>
            <path d="M202.69513761106975,129.21150672568837 L200.19513753656395,129.21150721245635"/>
            <path d="M202.69513858460533,134.21150501205472 L202.69513761106975,129.21150672568837"/>
            <path d="M201.6951308037689,94.211506994902024 L201.19513090062645,94.211507092255616"/>
            <path d="M201.69513761852033,129.21150692039555 L201.6951308037689,94.211506994902024"/>
            <path d="M201.19513771537788,129.21150701774911 L201.69513761852033,129.21150692039555"/>
            <path d="M201.19513090062645,94.211507092255616 L201.19513771537788,129.21150701774911"/>
            <path d="M200.19513072181252,94.211507286962828 L200.19513753656395,129.21150721245635"/>
            <path d="M202.69513079631832,94.211506800194854 L202.69513761106975,129.21150672568837"/>
        </g>
        <g id="product-3ebb9bc3-a7da-4800-ad29-fba49c8d4d87" class="IfcWindow material-null projection" ifc:name="Window" ifc:guid="0_kvl3fzf80Aqf_wISZKs7">
            <path d="M100.34437233043744,30.927708804190218 L95.344371063838722,30.927708804190218"/>
            <path d="M100.34437233043744,33.427708878696023 L100.34437233043744,30.927708804190218"/>
            <path d="M95.344371063838722,33.427708878696023 L100.34437233043744,33.427708878696023"/>
            <path d="M135.3443722559316,33.427708878696023 L140.34437054229807,33.427708878696023"/>
            <path d="M135.3443722559316,30.927708804190218 L135.3443722559316,33.427708878696023"/>
            <path d="M140.34437054229807,30.927708804190218 L135.3443722559316,30.927708804190218"/>
            <path d="M100.34437233043744,31.927708796739637 L100.34437233043744,32.427708699882089"/>
            <path d="M135.3443722559316,31.927708796739637 L100.34437233043744,31.927708796739637"/>
            <path d="M135.3443722559316,32.427708699882089 L135.3443722559316,31.927708796739637"/>
            <path d="M100.34437233043744,32.427708699882089 L135.3443722559316,32.427708699882089"/>
            <path d="M100.34437233043744,33.427708878696023 L135.3443722559316,33.427708878696023"/>
            <path d="M100.34437233043744,30.927708804190218 L135.3443722559316,30.927708804190218"/>
        </g>
        <g id="product-bfa16125-782e-4199-9585-12ac83aa4bb7" class="IfcWall material-brick projection" ifc:name="Wall" ifc:guid="2$eM4bU2v1cPM54go3gakt">
            <path d="M22.695102645577798,210.92766231053139 L42.695104751581482,190.92766950277161"/>
            <path d="M133.48794499590042,210.92770545485601 L22.695102645577798,210.92766231053139"/>
            <path d="M133.48794499590042,210.92770545485601 L133.487952784188,190.9277048588111"/>
            <path d="M42.695104751581482,190.92766950277161 L133.487952784188,190.9277048588111"/>
            <path d="M183.98797094124956,190.92772452424373 L192.69511831143745,190.92772791493201"/>
            <path d="M183.98797094124956,190.92772452424373 L183.98796315296198,210.92772512028864"/>
            <path d="M212.69511803325577,210.9277362992672 L183.98796315296198,210.92772512028864"/>
            <path d="M192.69511831143745,190.92772791493201 L212.69511803325577,210.9277362992672"/>
        </g>
        <g id="product-9e732e09-0b61-483b-a172-265cdbd04170" class="IfcWall material-brick projection" ifc:name="Wall" ifc:guid="2USou92s58Ew5o9bpRq45m">
            <path d="M140.34437054229807,20.92771316277998 L95.344371063838722,20.92771316277998"/>
            <path d="M95.344371063838722,40.9277137588264 L140.34437054229807,40.9277137588264"/>
            <path d="M212.69512633842066,20.92771316277998 L192.69512486814648,40.9277137588264"/>
            <path d="M140.34437054229807,20.92771316277998 L212.69512633842066,20.92771316277998"/>
            <path d="M140.34437054229807,20.92771316277998 L140.34437054229807,40.9277137588264"/>
            <path d="M192.69512486814648,40.9277137588264 L140.34437054229807,40.9277137588264"/>
            <path d="M95.344371063838722,40.9277137588264 L42.695116076263687,40.9277137588264"/>
            <path d="M95.344371063838722,40.9277137588264 L95.344371063838722,20.92771316277998"/>
            <path d="M22.695116990175233,20.92771316277998 L95.344371063838722,20.92771316277998"/>
            <path d="M42.695116076263687,40.9277137588264 L22.695116990175233,20.92771316277998"/>
        </g>
        <g id="product-ddeab922-280f-4061-bafb-77b2132c2912" class="IfcWall material-brick projection" ifc:name="Wall" ifc:guid="3TwhaYA0z0ORhxTx8JB2aI">
            <path d="M22.695111485009839,93.845838428413771 L22.695108087604318,138.84583790687429"/>
            <path d="M42.695108683650332,138.84584418520393 L42.695112081055839,93.845844706743435"/>
            <path d="M22.695116990175254,20.92771316278035 L42.695116076263673,40.92771375882657"/>
            <path d="M22.695111485009832,93.845838428413771 L22.695116990175254,20.92771316278035"/>
            <path d="M22.695111485009832,93.845838428413771 L42.695112081055839,93.845844706743449"/>
            <path d="M42.695116076263673,40.92771375882657 L42.695112081055839,93.845844706743449"/>
            <path d="M42.695108683650325,138.84584418520393 L42.695104751581823,190.92766950277166"/>
            <path d="M42.695108683650325,138.84584418520393 L22.695108087604314,138.84583790687429"/>
            <path d="M22.695102645577855,210.92766231053145 L22.695108087604314,138.84583790687429"/>
            <path d="M42.695104751581823,190.92766950277164 L22.695102645577855,210.92766231053145"/>
        </g>
        <g id="product-77fd59aa-1c3e-4691-a4f3-9a82b00ca8b3" class="IfcWall material-brick projection" ifc:name="Wall" ifc:guid="1t$Lcg73v6aQJpceAm3AYp">
            <path d="M212.69512138662913,134.21150160468142 L212.69512335364158,89.211502126220822"/>
            <path d="M192.69512275759496,89.211506020364624 L192.69512079058251,134.2115054988252"/>
            <path d="M212.69511803325599,210.92773629926725 L192.69511831143768,190.92772791493164"/>
            <path d="M212.69512138662913,134.21150160468142 L212.69511803325599,210.92773629926725"/>
            <path d="M212.69512138662913,134.21150160468142 L192.69512079058251,134.2115054988252"/>
            <path d="M192.69511831143768,190.92772791493164 L192.69512079058251,134.2115054988252"/>
            <path d="M192.69512275759496,89.211506020364624 L192.69512486814654,40.9277137588264"/>
            <path d="M192.69512275759496,89.211506020364624 L212.69512335364158,89.211502126220836"/>
            <path d="M212.69512633842078,20.92771316277998 L212.69512335364158,89.211502126220836"/>
            <path d="M192.69512486814654,40.9277137588264 L212.69512633842078,20.92771316277998"/>
        </g>
    <g class="2USou92s58Ew5o9bpRq45m cut 2$eM4bU2v1cPM54go3gakt material-brick 3TwhaYA0z0ORhxTx8JB2aI IfcWall 1t$Lcg73v6aQJpceAm3AYp"><path d="M22.695,20.928 L33.362,31.594 L42.695,40.928 L79.55,40.928 L95.344,40.928 L95.344,30.928 L95.344,20.928 L73.55,20.928 Z"/></g><g class="2USou92s58Ew5o9bpRq45m cut 2$eM4bU2v1cPM54go3gakt material-brick 3TwhaYA0z0ORhxTx8JB2aI IfcWall 1t$Lcg73v6aQJpceAm3AYp"><path d="M140.344,20.928 L140.344,30.928 L140.344,40.928 L156.05,40.928 L192.695,40.928 L192.695,74.726 L192.695,89.211 L202.695,89.211 L212.695,89.211 L212.695,68.726 L212.695,20.928 L162.05,20.928 Z"/></g><g class="2USou92s58Ew5o9bpRq45m cut 2$eM4bU2v1cPM54go3gakt material-brick 3TwhaYA0z0ORhxTx8JB2aI IfcWall 1t$Lcg73v6aQJpceAm3AYp"><path d="M22.695,93.846 L32.695,93.846 L42.695,93.846 L42.695,77.97 L42.695,40.928 L32.028,30.261 L22.695,20.928 L22.695,71.97 Z"/></g><g class="2USou92s58Ew5o9bpRq45m cut 2$eM4bU2v1cPM54go3gakt material-brick 3TwhaYA0z0ORhxTx8JB2aI IfcWall 1t$Lcg73v6aQJpceAm3AYp"><path d="M212.695,134.211 L202.695,134.211 L192.695,134.211 L192.695,151.226 L192.695,190.928 L203.362,201.594 L212.695,210.928 L212.695,157.226 Z"/></g><g class="2USou92s58Ew5o9bpRq45m cut 2$eM4bU2v1cPM54go3gakt material-brick 3TwhaYA0z0ORhxTx8JB2aI IfcWall 1t$Lcg73v6aQJpceAm3AYp"><path d="M22.695,210.928 L105.338,210.928 L133.488,210.928 L133.488,196.009 L133.488,190.928 L110.419,190.928 L42.695,190.928 L42.695,154.47 L42.695,138.846 L32.695,138.846 L22.695,138.846 L22.695,160.47 Z"/></g><g class="2USou92s58Ew5o9bpRq45m cut 2$eM4bU2v1cPM54go3gakt material-brick 3TwhaYA0z0ORhxTx8JB2aI IfcWall 1t$Lcg73v6aQJpceAm3AYp"><path d="M212.695,210.928 L202.028,200.261 L192.695,190.928 L186.2,190.928 L183.988,190.928 L183.988,205.846 L183.988,210.928 L191.282,210.928 Z"/></g><g class="2USou92s58Ew5o9bpRq45m layer-material-Unknown IfcMaterialLayer cut 2$eM4bU2v1cPM54go3gakt material-brick 3TwhaYA0z0ORhxTx8JB2aI IfcWall 1t$Lcg73v6aQJpceAm3AYp"><path d="M22.695,20.928 L33.362,31.594 L42.695,40.928 L79.55,40.928 L95.344,40.928 L95.344,30.928 L95.344,20.928 L73.55,20.928 Z"/></g><g class="2USou92s58Ew5o9bpRq45m layer-material-Unknown IfcMaterialLayer cut 2$eM4bU2v1cPM54go3gakt material-brick 3TwhaYA0z0ORhxTx8JB2aI IfcWall 1t$Lcg73v6aQJpceAm3AYp"><path d="M140.344,20.928 L140.344,30.928 L140.344,40.928 L156.05,40.928 L192.695,40.928 L192.695,74.726 L192.695,89.211 L202.695,89.211 L212.695,89.211 L212.695,68.726 L212.695,20.928 L162.05,20.928 Z"/></g><g class="2USou92s58Ew5o9bpRq45m layer-material-Unknown IfcMaterialLayer cut 2$eM4bU2v1cPM54go3gakt material-brick 3TwhaYA0z0ORhxTx8JB2aI IfcWall 1t$Lcg73v6aQJpceAm3AYp"><path d="M22.695,93.846 L32.695,93.846 L42.695,93.846 L42.695,77.97 L42.695,40.928 L32.028,30.261 L22.695,20.928 L22.695,71.97 Z"/></g><g class="2USou92s58Ew5o9bpRq45m layer-material-Unknown IfcMaterialLayer cut 2$eM4bU2v1cPM54go3gakt material-brick 3TwhaYA0z0ORhxTx8JB2aI IfcWall 1t$Lcg73v6aQJpceAm3AYp"><path d="M212.695,134.211 L202.695,134.211 L192.695,134.211 L192.695,151.226 L192.695,190.928 L203.362,201.594 L212.695,210.928 L212.695,157.226 Z"/></g><g class="2USou92s58Ew5o9bpRq45m layer-material-Unknown IfcMaterialLayer cut 2$eM4bU2v1cPM54go3gakt material-brick 3TwhaYA0z0ORhxTx8JB2aI IfcWall 1t$Lcg73v6aQJpceAm3AYp"><path d="M22.695,210.928 L105.338,210.928 L133.488,210.928 L133.488,196.009 L133.488,190.928 L110.419,190.928 L42.695,190.928 L42.695,154.47 L42.695,138.846 L32.695,138.846 L22.695,138.846 L22.695,160.47 Z"/></g><g class="2USou92s58Ew5o9bpRq45m layer-material-Unknown IfcMaterialLayer cut 2$eM4bU2v1cPM54go3gakt material-brick 3TwhaYA0z0ORhxTx8JB2aI IfcWall 1t$Lcg73v6aQJpceAm3AYp"><path d="M212.695,210.928 L202.028,200.261 L192.695,190.928 L186.2,190.928 L183.988,190.928 L183.988,205.846 L183.988,210.928 L191.282,210.928 Z"/></g></g>
</svg>