<svg xmlns="http://www.w3.org/2000/svg" xmlns:xlink="http://www.w3.org/1999/xlink" xmlns:ifc="http://www.ifcopenshell.org/ns" width="179.8mm" height="120.093mm" viewBox="0 0 179.8 120.093">
    <defs>
        <marker id="arrowend" markerWidth="10" markerHeight="7" refX="10" refY="3.5" orient="auto">
          <polygon points="0 0, 10 3.5, 0 7"/>
        </marker>
        <marker id="arrowstart" markerWidth="10" markerHeight="7" refX="0" refY="3.5" orient="auto">
          <polygon points="10 0, 0 3.5, 10 7"/>
        </marker>
    </defs>
    <g ifc:name="Elevation NORTH SECTION" class="section" ifc:plane="[[1.000000,0.000000,0.000000,0.000000],[0.000000,0.000000,-1.000000,2.014239],[0.000000,1.000000,0.000000,-0.000000],[0.000000,0.000000,0.000000,1.000000]]" ifc:matrix3="[[20.000000,0.000000,33.592774],[0.000000,20.000000,98.353888],[0.000000,0.000000,1.000000]]">
        <g id="product-5b2fab67-40c6-497d-8a81-83de7cbae2a2" class="IfcWindow material-null projection" ifc:name="Window" ifc:guid="1RBwjdGCP9VOg1WzvykkAY">
            <path d="M42.449491004194293,76.353885253478268 L42.249491013134985,76.353885253478268"/>
            <path d="M42.44949314905314,76.353884737632939 L42.249493157993854,76.353884737632939"/>
            <path d="M42.44949314905314,56.353884588621369 L42.249493157993854,56.353884588621355"/>
            <path d="M42.249491013135454,56.353885104466556 L42.449491004194769,56.353885104466556"/>
            <path d="M42.249493157993854,76.353884737632939 L42.249491013134985,76.353885253478268"/>
            <path d="M42.249491013134985,76.353885253478268 L42.249491013135454,56.353885104466556"/>
            <path d="M42.249491013135454,56.353885104466556 L42.249493157993854,56.353884588621355"/>
            <path d="M42.249493157993854,76.353884737632939 L42.249493157993854,56.353884588621355"/>
            <path d="M42.44949314905314,76.353884737632939 L42.44949314905314,56.353884588621369"/>
            <path d="M42.44949314905314,56.353884588621369 L42.449491004194769,56.353885104466556"/>
            <path d="M42.449491004194769,56.353885104466556 L42.449491004194293,76.353885253478268"/>
            <path d="M42.44949314905314,76.353884737632939 L42.449491004194293,76.353885253478268"/>
            <path d="M42.849490986313391,56.353885104466556 L41.849490993763922,56.353885104466556"/>
            <path d="M41.849490993763972,54.353884672332846 L42.849490986313441,54.353884672332846"/>
            <path d="M42.849493131171734,56.353884588621369 L41.849493138622364,56.353884588621341"/>
            <path d="M42.849493131171734,76.353884737632953 L41.849493138622364,76.353884737632939"/>
            <path d="M41.849490993763453,76.353885253478268 L42.849490986312922,76.353885253478268"/>
            <path d="M42.849490986312873,78.353885089565495 L41.849490993763403,78.353885089565495"/>
            <path d="M42.849490986312922,76.353885253478268 L42.849490986312873,78.353885089565495"/>
            <path d="M42.849493759004439,78.353884422724434 L42.849493759004439,54.353884005491928"/>
            <path d="M42.849490986313441,54.353884672332846 L42.849490986313391,56.353885104466556"/>
            <path d="M42.849490986313391,56.353885104466556 L42.849493131171734,56.353884588621369"/>
            <path d="M42.849493131171734,56.353884588621369 L42.849493131171734,76.353884737632953"/>
            <path d="M42.849490986312922,76.353885253478268 L42.849493131171734,76.353884737632953"/>
            <path d="M41.849490993763403,78.353885089565495 L41.849490993763453,76.353885253478268"/>
            <path d="M41.849490993763453,76.353885253478268 L41.849493138622364,76.353884737632939"/>
            <path d="M41.849493138622364,56.353884588621341 L41.849493138622364,76.353884737632939"/>
            <path d="M41.849490993763922,56.353885104466556 L41.849493138622364,56.353884588621341"/>
            <path d="M41.849490993763922,56.353885104466556 L41.849490993763972,54.353884672332846"/>
            <path d="M41.849493766455069,54.353884005491899 L41.849493766455069,56.353884588621355"/>
            <path d="M41.849493766455069,76.353884737632939 L41.849493766455069,78.353884422724406"/>
        </g>
        <g id="product-4bc1b162-231f-45a2-bad7-e02abd4789f6" class="IfcWindow material-null projection" ifc:name="Window" ifc:guid="1BmR5Y8nz5ehhNu2gzHuds">
            <path d="M109.44949369396309,76.353885253478268 L109.24949370290378,76.353885253478268"/>
            <path d="M109.24949201161625,76.353884597679865 L109.44949200267556,76.353884597679865"/>
            <path d="M109.24949370290349,56.353885104466556 L109.44949369396281,56.353885104466556"/>
            <path d="M109.24949201161625,56.353884448668275 L109.44949200267556,56.353884448668268"/>
            <path d="M109.44949369396309,76.353885253478268 L109.44949200267556,76.353884597679865"/>
            <path d="M109.44949200267556,76.353884597679865 L109.44949200267556,56.353884448668268"/>
            <path d="M109.44949200267556,56.353884448668268 L109.44949369396281,56.353885104466556"/>
            <path d="M109.44949369396281,56.353885104466556 L109.44949369396309,76.353885253478268"/>
            <path d="M109.24949370290378,76.353885253478268 L109.24949370290349,56.353885104466556"/>
            <path d="M109.24949370290349,56.353885104466556 L109.24949201161625,56.353884448668275"/>
            <path d="M109.24949201161625,56.353884448668275 L109.24949201161625,76.353884597679865"/>
            <path d="M109.24949370290378,76.353885253478268 L109.24949201161625,76.353884597679865"/>
            <path d="M109.84949371333431,56.353885104466556 L108.84949372078488,56.353885104466556"/>
            <path d="M109.84949202204704,56.353884448668268 L108.84949202949765,56.353884448668275"/>
            <path d="M108.84949372078485,54.353884672332846 L109.84949371333428,54.353884672332846"/>
            <path d="M108.84949372078516,76.353885253478268 L109.84949371333461,76.353885253478268"/>
            <path d="M109.84949202204704,76.353884597679865 L108.84949202949765,76.353884597679865"/>
            <path d="M109.84949371333464,78.353885089565495 L108.8494937207852,78.353885089565495"/>
            <path d="M108.84949202949765,76.353884597679865 L108.84949202949765,56.353884448668275"/>
            <path d="M108.84949202949765,56.353884448668275 L108.84949372078488,56.353885104466556"/>
            <path d="M108.84949372078488,56.353885104466556 L108.84949372078485,54.353884672332846"/>
            <path d="M108.84949164008331,54.353883865538776 L108.84949164008331,78.353884282771304"/>
            <path d="M108.8494937207852,78.353885089565495 L108.84949372078516,76.353885253478268"/>
            <path d="M108.84949202949765,76.353884597679865 L108.84949372078516,76.353885253478268"/>
            <path d="M109.84949163263272,78.35388428277129 L109.84949163263272,76.353884597679865"/>
            <path d="M109.84949163263272,56.353884448668275 L109.84949163263272,54.353883865538776"/>
            <path d="M109.84949371333428,54.353884672332846 L109.84949371333431,56.353885104466556"/>
            <path d="M109.84949202204704,56.353884448668268 L109.84949371333431,56.353885104466556"/>
            <path d="M109.84949202204704,76.353884597679865 L109.84949202204704,56.353884448668268"/>
            <path d="M109.84949202204704,76.353884597679865 L109.84949371333461,76.353885253478268"/>
            <path d="M109.84949371333461,76.353885253478268 L109.84949371333464,78.353885089565495"/>
        </g>
        <g id="product-3ebb9bc3-a7da-4800-ad29-fba49c8d4d87" class="IfcWindow material-null projection" ifc:name="Window" ifc:guid="0_kvl3fzf80Aqf_wISZKs7">
            <path d="M82.909189609496991,76.353882762060294 L82.909189609496991,76.353882731861148"/>
            <path d="M68.909189564793508,76.353882762060294 L82.909189609496991,76.353882762060294"/>
            <path d="M82.909189609496991,56.353882613048704 L82.909189609496991,76.353882762060294"/>
            <path d="M68.909189564793508,56.353882613048704 L82.909189609496991,56.353882613048704"/>
            <path d="M68.909189564793508,76.353882762060294 L68.909189564793508,56.353882613048704"/>
        </g>
        <g id="product-b982c366-96c0-4c6c-b40f-c4f6f44db7fa" class="IfcSlab material-null projection" ifc:name="Slab" ifc:guid="2vWiDcbi1CRBGFnFRqJRVw">
            <path d="M113.85034298065614,102.35388461272841 L113.85034298065618,98.35388470213536"/>
            <path d="M37.849423996254743,98.35388470213536 L113.85034298065618,98.35388470213536"/>
            <path d="M37.849423996254743,98.35388470213536 L37.849423996255211,102.35388461272841"/>
            <path d="M37.849423996255211,102.35388461272841 L113.85034298065614,102.35388461272841"/>
        </g>
        <g id="product-5af7665a-040c-4d7c-b3a9-b235866cb58b" class="IfcRoof material-null projection" ifc:name="Roof" ifc:guid="1QzsPQ10nDVBEfiZM6RBMB">
            <path d="M25.849491587929279,36.323028028964352 L25.849491587929279,38.632429161665677"/>
            <path d="M25.849491587929279,38.632432936570808 L25.849491587929279,36.323031803869462"/>
            <path d="M25.849491587929279,38.632429161665677 L25.849491587929279,38.632432936570808"/>
            <path d="M25.849491587929279,38.632432936570808 L75.849914855403512,9.7648263161011783"/>
            <path d="M25.849491587929279,38.632429161665677 L75.849914855403512,9.7648225411965939"/>
            <path d="M125.85033812287773,38.632429161665677 L75.849914855403512,9.7648225411965939"/>
            <path d="M75.849914855403512,9.7648263161011783 L75.849914855403512,9.7648225411965939"/>
            <path d="M75.849914855403512,9.7648263161011783 L125.85033812287773,38.632432936570808"/>
            <path d="M125.85033812287773,36.323031803869462 L125.85033812287773,38.632432936570808"/>
            <path d="M125.85033812287773,38.632432936570808 L125.85033812287773,38.632429161665677"/>
            <path d="M125.85033812287773,36.323028028964352 L125.85033812287773,38.632429161665677"/>
            <path d="M25.849491587929279,36.323028028964352 L75.849914855403512,7.455421557506881"/>
            <path d="M75.849914855403512,7.455425332411437 L25.849491587929272,36.323031803869462"/>
            <path d="M25.849491587929279,36.323028028964352 L25.849491587929279,36.323031803869462"/>
            <path d="M125.85033812287773,36.323031803869462 L125.85033812287773,36.323028028964352"/>
            <path d="M125.85033812287773,36.323028028964352 L75.849914855403512,7.455421557506881"/>
            <path d="M75.849914855403512,7.455421557506881 L75.849914855403512,7.455425332411437"/>
            <path d="M75.849914855403512,7.455425332411437 L125.85033812287773,36.323031803869462"/>
        </g>
        <g id="product-77fd59aa-1c3e-4691-a4f3-9a82b00ca8b3" class="IfcWall material-brick projection" ifc:name="Wall" ifc:guid="1t$Lcg73v6aQJpceAm3AYp">
            <path d="M113.84948842885149,31.70377603391718 L105.84948848845616,27.084998352704503"/>
            <path d="M105.84948848845607,54.35388467233286 L105.84948848845616,27.084998352704503"/>
            <path d="M105.84948848845607,54.35388467233286 L113.84948842885143,54.35388467233286"/>
            <path d="M113.84948842885149,31.70377603391718 L113.84948842885143,54.35388467233286"/>
            <path d="M113.84948842885143,54.353883865538677 L113.84948889596498,54.353883865538677"/>
            <path d="M113.84948889596498,78.35388428277119 L113.84948889596498,54.353883865538677"/>
            <path d="M113.84948842885134,78.35388428277119 L113.84948889596498,78.35388428277119"/>
            <path d="M105.84948895556957,54.353883865538783 L105.84948895556957,78.353884282771304"/>
            <path d="M113.84948842885134,78.353885089565495 L113.84948842885127,98.353884642530716"/>
            <path d="M113.84948842885134,78.353885089565495 L105.84948848845599,78.353885089565495"/>
            <path d="M105.84948848845593,98.353884642530716 L105.84948848845599,78.353885089565495"/>
            <path d="M113.84948842885127,98.353884642530716 L105.84948848845593,98.353884642530716"/>
        </g>
        <g id="product-9e732e09-0b61-483b-a172-265cdbd04170" class="IfcWall material-brick projection" ifc:name="Wall" ifc:guid="2USou92s58Ew5o9bpRq45m">
            <path d="M113.84949008987658,98.353881773623272 L113.84949008987658,31.703776973345398"/>
            <path d="M113.84948843458989,31.703776017670265 L113.84949008987658,31.703776973345398"/>
            <path d="M113.84949008987658,98.353881773623272 L113.84948842885127,98.353881773623385"/>
            <path d="M66.909189728706281,54.353882407408854 L66.909189728706281,78.35388282464136"/>
            <path d="M84.909188849537784,54.353882407408854 L66.909189728706281,54.353882407408854"/>
            <path d="M84.909188849537784,78.35388282464136 L84.909188849537784,54.353882407408854"/>
            <path d="M66.909189728706281,78.35388282464136 L84.909188849537784,78.35388282464136"/>
            <path d="M45.849488518211295,27.085489701758817 L75.849914616906091,9.7648264353631902"/>
            <path d="M75.849914616906091,9.7648264353631902 L105.84948979979013,27.084999253745494"/>
            <path d="M105.84948848845593,98.353882377606467 L45.849488518211295,98.353882377606467"/>
            <path d="M45.849488518211295,98.353882377606467 L45.849488518211295,27.085489701758817"/>
            <path d="M37.849489181799122,31.704266650518861 L45.849488518211295,27.085489701758817"/>
            <path d="M37.849489181799122,31.704270441710975 L37.849489181799122,31.704266650518861"/>
            <path d="M45.849488518211295,98.353882377606467 L45.84948625328704,98.353882377606297"/>
        </g>
        <g id="product-ddeab922-280f-4061-bafb-77b2132c2912" class="IfcWall material-brick projection" ifc:name="Wall" ifc:guid="3TwhaYA0z0ORhxTx8JB2aI">
            <path d="M37.849486312891926,54.35388467233286 L45.849486253287296,54.35388467233286"/>
            <path d="M45.849486253287445,27.085494306734503 L45.849486253287296,54.35388467233286"/>
            <path d="M45.849486253287445,27.085494306734503 L37.849486312892054,31.704272098066497"/>
            <path d="M37.849486312891926,54.35388467233286 L37.849486312892054,31.704272098066497"/>
            <path d="M45.849486920128214,78.353884422724434 L45.849486253287154,78.353884422724434"/>
            <path d="M37.849486979733044,54.353884005491729 L37.849486979733044,78.353884422724249"/>
            <path d="M45.849486920128214,54.353884005491935 L45.849486253287296,54.353884005491935"/>
            <path d="M45.849486920128214,78.353884422724434 L45.849486920128214,54.353884005491935"/>
            <path d="M45.849486253287154,78.353885089565495 L45.84948625328704,98.353884642530716"/>
            <path d="M45.849486253287154,78.353885089565495 L37.849486312891791,78.353885089565495"/>
            <path d="M37.849486312891678,98.353884642530716 L37.849486312891791,78.353885089565495"/>
            <path d="M45.84948625328704,98.353884642530716 L37.849486312891678,98.353884642530716"/>
        </g>
    <g ifc:guid="1RBwjdGCP9VOg1WzvykkAY" ifc:name="Window" class="IfcWindow material-null cut"><path d="M42.249488830566406,56.35388615221348 L42.347097396850586,56.35388615221348 L42.3614501953125,56.35388615221348 L42.44948863983154,56.35388615221348 L42.849488258361816,56.35388615221348 L42.849488258361816,55.457956815665625 L42.849488258361816,54.35388329119053 L42.34018802642822,54.35388329119053 L41.84948921203613,54.35388329119053 L41.84948921203613,55.457956815665625 L41.84948921203613,56.35388615221348 Z"/><path d="M42.347097396850586,56.35388615221348 L42.249488830566406,56.35388615221348 L42.249488830566406,66.11470701784458 L42.249488830566406,76.35388317198124 L42.33753204345703,76.35388317198124 L42.35188007354736,76.35388317198124 L42.44948863983154,76.35388317198124 L42.44948863983154,66.59306051821079 L42.44948863983154,56.35388615221348 L42.3614501953125,56.35388615221348 Z"/><path d="M42.33753204345703,76.35388317198124 L42.249488830566406,76.35388317198124 L41.84948921203613,76.35388317198124 L41.84948921203613,77.24981250852909 L41.84948921203613,78.3538836488184 L42.35878944396973,78.3538836488184 L42.849488258361816,78.3538836488184 L42.849488258361816,77.24981250852909 L42.849488258361816,76.35388317198124 L42.44948863983154,76.35388317198124 L42.35188007354736,76.35388317198124 Z"/></g><g ifc:guid="1BmR5Y8nz5ehhNu2gzHuds" ifc:name="Window" class="IfcWindow material-null cut"><path d="M109.44949626922607,56.35388615221348 L109.37358379364014,56.35388615221348 L109.24949645996094,56.35388615221348 L109.24949645996094,68.76290085405674 L109.24949645996094,76.35388317198124 L109.3254041671753,76.35388317198124 L109.44949626922607,76.35388317198124 L109.44949626922607,63.94486668199863 Z"/><path d="M109.37358379364014,56.35388615221348 L109.44949626922607,56.35388615221348 L109.84949588775635,56.35388615221348 L109.84949588775635,55.26809456438389 L109.84949588775635,54.35388329119053 L109.44317817687988,54.35388329119053 L108.84949684143066,54.35388329119053 L108.84949684143066,55.26809456438389 L108.84949684143066,56.35388615221348 L109.2290449142456,56.35388615221348 L109.24949645996094,56.35388615221348 Z"/><path d="M109.44949626922607,76.35388317198124 L109.3254041671753,76.35388317198124 L109.24949645996094,76.35388317198124 L108.84949684143066,76.35388317198124 L108.84949684143066,77.43967237562504 L108.84949684143066,78.3538836488184 L109.25580978393555,78.3538836488184 L109.84949588775635,78.3538836488184 L109.84949588775635,77.43967237562504 L109.84949588775635,76.35388317198124 L109.4699478149414,76.35388317198124 Z"/></g><g ifc:guid="1QzsPQ10nDVBEfiZM6RBMB" ifc:name="Roof" class="IfcRoof material-null cut"><path d="M25.84949016571045,37.477729941314124 L25.84949016571045,38.63243403524723 L75.84991455078125,9.764826918548009 L125.85033893585205,38.63243403524723 L125.85033893585205,37.477729941314124 L125.85033893585205,36.3230306157526 L75.84991455078125,7.455428267424962 L25.84949016571045,36.3230306157526 Z"/></g><g class="3TwhaYA0z0ORhxTx8JB2aI 1t$Lcg73v6aQJpceAm3AYp cut IfcWall material-brick"><path d="M45.849,48.152 L45.849,27.085 L42.32,29.123 L37.849,31.704 L37.849,50.082 L37.849,54.354 L41.924,54.354 L45.849,54.354 Z"/></g><g class="3TwhaYA0z0ORhxTx8JB2aI 1t$Lcg73v6aQJpceAm3AYp cut IfcWall material-brick"><path d="M113.849,54.354 L113.849,50.698 L113.849,31.704 L109.379,29.123 L105.849,27.085 L105.849,49.009 L105.849,54.354 L110.599,54.354 Z"/></g><g class="3TwhaYA0z0ORhxTx8JB2aI 1t$Lcg73v6aQJpceAm3AYp cut IfcWall material-brick"><path d="M37.849,78.354 L37.849,82.126 L37.849,98.354 L42.32,98.354 L45.849,98.354 L45.849,82.903 L45.849,78.354 L41.924,78.354 Z"/></g><g class="3TwhaYA0z0ORhxTx8JB2aI 1t$Lcg73v6aQJpceAm3AYp cut IfcWall material-brick"><path d="M105.849,82.274 L105.849,98.354 L109.379,98.354 L113.849,98.354 L113.849,81.582 L113.849,78.354 L110.599,78.354 L105.849,78.354 Z"/></g><g class="cut IfcSlab 2vWiDcbi1CRBGFnFRqJRVw material-null"><path d="M75.85,98.354 L37.849,98.354 L37.849,100.354 L37.849,102.354 L75.85,102.354 L113.85,102.354 L113.85,100.354 L113.85,98.354 Z"/></g><g class="IfcMaterialLayer 3TwhaYA0z0ORhxTx8JB2aI 1t$Lcg73v6aQJpceAm3AYp cut layer-material-Unknown IfcWall material-brick"><path d="M45.849,48.152 L45.849,27.085 L42.32,29.123 L37.849,31.704 L37.849,50.082 L37.849,54.354 L41.924,54.354 L45.849,54.354 Z"/></g><g class="IfcMaterialLayer 3TwhaYA0z0ORhxTx8JB2aI 1t$Lcg73v6aQJpceAm3AYp cut layer-material-Unknown IfcWall material-brick"><path d="M113.849,54.354 L113.849,50.698 L113.849,31.704 L109.379,29.123 L105.849,27.085 L105.849,49.009 L105.849,54.354 L110.599,54.354 Z"/></g><g class="IfcMaterialLayer 3TwhaYA0z0ORhxTx8JB2aI 1t$Lcg73v6aQJpceAm3AYp cut layer-material-Unknown IfcWall material-brick"><path d="M37.849,78.354 L37.849,82.126 L37.849,98.354 L42.32,98.354 L45.849,98.354 L45.849,82.903 L45.849,78.354 L41.924,78.354 Z"/></g><g class="IfcMaterialLayer 3TwhaYA0z0ORhxTx8JB2aI 1t$Lcg73v6aQJpceAm3AYp cut layer-material-Unknown IfcWall material-brick"><path d="M105.849,82.274 L105.849,98.354 L109.379,98.354 L113.849,98.354 L113.849,81.582 L113.849,78.354 L110.599,78.354 L105.849,78.354 Z"/></g><g class="IfcMaterialLayer material-null 2vWiDcbi1CRBGFnFRqJRVw IfcSlab cut layer-material-Unknown"><path d="M75.85,98.354 L37.849,98.354 L37.849,100.354 L37.849,102.354 L75.85,102.354 L113.85,102.354 L113.85,100.354 L113.85,98.354 Z"/></g></g>
</svg>