<svg xmlns="http://www.w3.org/2000/svg" xmlns:xlink="http://www.w3.org/1999/xlink" xmlns:ifc="http://www.ifcopenshell.org/ns" width="181.963mm" height="121.987mm" viewBox="0 0 181.963 121.987">
    <defs>
        <marker id="arrowend" markerWidth="10" markerHeight="7" refX="10" refY="3.5" orient="auto">
          <polygon points="0 0, 10 3.5, 0 7"/>
        </marker>
        <marker id="arrowstart" markerWidth="10" markerHeight="7" refX="0" refY="3.5" orient="auto">
          <polygon points="10 0, 0 3.5, 10 7"/>
        </marker>
    </defs>
    <g ifc:name="Elevation SOUTH ELEVATION" class="section" ifc:plane="[[1.000000,0.000000,0.000000,0.000000],[0.000000,0.000000,-1.000000,-0.497692],[0.000000,1.000000,0.000000,0.000000],[0.000000,0.000000,0.000000,1.000000]]" ifc:matrix3="[[20.000000,0.000000,41.558272],[0.000000,20.000000,96.398505],[0.000000,0.000000,1.000000]]">
        <g id="product-d4bedc39-981b-4ebb-bf8e-46b383665de4" class="IfcDoor material-null projection" ifc:name="Door" ifc:guid="3Kljmvc1jEkx_EHhE3Pbta">
            <path d="M109.23211053564265,54.598502550517253 L91.232107838534588,54.598502550516606"/>
            <path d="M91.232107838534588,96.398504667971409 L91.232107838534588,54.598502550516606"/>
            <path d="M110.33211423038546,96.398504667972105 L110.33211423038546,53.498501239960227"/>
            <path d="M109.23211053564265,96.398504667972063 L109.23211053564265,54.598502550517253"/>
            <path d="M109.2321110601634,54.598502467469579 L109.23211053564265,54.598502467469579"/>
        </g>
        <g id="product-b982c366-96c0-4c6c-b40f-c4f6f44db7fa" class="IfcSlab material-null projection" ifc:name="Slab" ifc:guid="2vWiDcbi1CRBGFnFRqJRVw">
            <path d="M90.132116525685717,96.39850517214073 L121.815836004823,96.398505172140517"/>
            <path d="M45.814980350364095,100.39850508273405 L121.815836004823,100.39850508273355"/>
            <path d="M121.815836004823,100.39850508273355 L121.815836004823,96.398505172140517"/>
            <path d="M45.814980350364095,100.39850508273405 L45.814980350364095,96.398505172141029"/>
        </g>
        <g id="product-5af7665a-040c-4d7c-b3a9-b235866cb58b" class="IfcRoof material-null projection" ifc:name="Roof" ifc:guid="1QzsPQ10nDVBEfiZM6RBMB">
            <path d="M33.81498938046758,34.367653179852731 L33.81498938046758,36.677054312554048"/>
            <path d="M33.81498938046758,34.367645630038815 L33.81498938046758,34.367653179852724"/>
            <path d="M33.81498938046758,36.677054312554048 L83.815412647941812,7.809447692084575"/>
            <path d="M133.81583591541602,36.677054312554048 L83.815412647941798,7.809447692084575"/>
            <path d="M133.81583591541602,34.367645630038815 L133.81583591541602,34.367653179852702"/>
            <path d="M133.81583591541602,34.367653179852731 L133.81583591541602,36.677054312554048"/>
            <path d="M33.81498938046758,34.367653179852731 L83.815412647941798,5.5000467083948621"/>
            <path d="M33.81498938046758,34.367645630038815 L83.815412647941798,5.5000391585813446"/>
            <path d="M33.81498938046758,34.367645630038815 L33.81498938046758,34.367653179852731"/>
            <path d="M133.81583591541602,34.367653179852731 L83.815412647941798,5.5000467083948621"/>
            <path d="M83.815412647941798,5.5000391585813446 L83.815412647941798,5.5000467083948621"/>
            <path d="M133.81583591541602,34.367645630038815 L83.815412647941798,5.5000391585813446"/>
            <path d="M133.81583591541602,34.367653179852731 L133.81583591541602,34.367645630038815"/>
        </g>
        <g id="product-bfa16125-782e-4199-9585-12ac83aa4bb7" class="IfcWall material-brick projection" ifc:name="Wall" ifc:guid="2$eM4bU2v1cPM54go3gakt">
            <path d="M121.81498456034905,96.398505112538714 L121.81498456034905,29.748399752384643"/>
            <path d="M83.815411869060597,7.8094491702943145 L121.81498456034905,29.748399752384643"/>
            <path d="M45.81498123649866,96.398505112536483 L45.81498123649866,29.748892990166823"/>
            <path d="M90.132116525685717,96.398505112537777 L45.81498123649866,96.398505112536483"/>
            <path d="M90.132116525685717,53.498501684525905 L90.132116525685717,96.398505112537777"/>
            <path d="M110.33212303600145,53.498501684526502 L90.132116525685717,53.498501684525905"/>
            <path d="M110.33212303600145,96.398505112538373 L110.33212303600145,53.498501684526502"/>
            <path d="M121.81498456034905,96.398505112538714 L110.33212303600145,96.398505112538373"/>
        </g>
        <g id="product-77fd59aa-1c3e-4691-a4f3-9a82b00ca8b3" class="IfcWall material-brick projection" ifc:name="Wall" ifc:guid="1t$Lcg73v6aQJpceAm3AYp">
            <path d="M121.81498456034913,52.398501466613141 L121.81498668850328,52.398501466613141"/>
            <path d="M121.81498668850328,76.398501883845654 L121.81498668850328,52.398501466613141"/>
            <path d="M121.81498456034913,76.398501883845654 L121.81498668850328,76.398501883845654"/>
            <path d="M121.81498456034913,96.398505112538714 L121.81498456034913,29.748395980853545"/>
            <path d="M113.81498496964502,25.129621612349496 L113.81498496964502,25.129617805777386"/>
        </g>
        <g id="product-9e732e09-0b61-483b-a172-265cdbd04170" class="IfcWall material-brick projection" ifc:name="Wall" ifc:guid="2USou92s58Ew5o9bpRq45m">
            <path d="M121.81498788241488,96.398499374697735 L121.81498788241488,29.748397763478948"/>
            <path d="M121.81498788241488,96.398499374697735 L121.81498456034913,96.398499374697977"/>
            <path d="M110.33212303600145,96.398499978680931 L110.33211518405976,96.398499978680931"/>
        </g>
        <g id="product-ddeab922-280f-4061-bafb-77b2132c2912" class="IfcWall material-brick projection" ifc:name="Wall" ifc:guid="3TwhaYA0z0ORhxTx8JB2aI">
            <path d="M45.814981236498681,96.398505112536483 L45.814981236498681,29.748893875751676"/>
        </g>
    </g>
</svg>